<svg width="38" height="39" viewBox="0 0 38 39" fill="none" xmlns="http://www.w3.org/2000/svg">
<path d="M2 35.68L9.18 28.5H32C33.0609 28.5 34.0783 28.0786 34.8284 27.3284C35.5786 26.5783 36 25.5609 36 24.5V6.5C36 5.43913 35.5786 4.42172 34.8284 3.67157C34.0783 2.92143 33.0609 2.5 32 2.5H6C4.93913 2.5 3.92172 2.92143 3.17157 3.67157C2.42143 4.42172 2 5.43913 2 6.5V35.68ZM2 38.5H0V6.5C0 4.9087 0.632141 3.38258 1.75736 2.25736C2.88258 1.13214 4.4087 0.5 6 0.5H32C33.5913 0.5 35.1174 1.13214 36.2426 2.25736C37.3679 3.38258 38 4.9087 38 6.5V24.5C38 26.0913 37.3679 27.6174 36.2426 28.7426C35.1174 29.8679 33.5913 30.5 32 30.5H10L2 38.5ZM8 8.5H30V10.5H8V8.5ZM8 14.5H30V16.5H8V14.5ZM8 20.5H24V22.5H8V20.5Z" fill="#49454F"/>
</svg>
