<?xml version="1.0" standalone="no"?>
<!DOCTYPE svg PUBLIC "-//W3C//DTD SVG 20010904//EN"
 "http://www.w3.org/TR/2001/REC-SVG-20010904/DTD/svg10.dtd">
<svg version="1.0" xmlns="http://www.w3.org/2000/svg"
 width="509.000000pt" height="509.000000pt" viewBox="0 0 509.000000 509.000000"
 preserveAspectRatio="xMidYMid meet">
<metadata>
Created by potrace 1.14, written by Peter Selinger 2001-2017
</metadata>
<g transform="translate(0.000000,509.000000) scale(0.100000,-0.100000)"
fill="#000000" stroke="none">
<path d="M109 5047 c-48 -26 -83 -70 -99 -126 -6 -24 -10 -789 -10 -2226 0
-2423 -4 -2257 66 -2403 44 -91 155 -209 245 -260 l57 -32 2173 2 2174 3 60
39 c125 80 216 195 263 333 l27 78 3 1995 c2 1399 0 2020 -8 2079 -32 246
-174 421 -417 514 l-58 22 -1007 3 c-1119 3 -1074 5 -1214 -64 -139 -68 -255
-205 -305 -355 l-24 -74 0 -1040 c0 -993 1 -1042 19 -1095 72 -211 209 -347
416 -416 50 -17 114 -19 760 -24 388 -3 706 -7 708 -8 54 -42 94 -92 107 -135
22 -74 22 -660 0 -734 -18 -61 -85 -129 -137 -138 -18 -3 -648 -4 -1399 -3
l-1365 3 -36 24 c-44 30 -77 79 -89 128 -5 21 -9 865 -9 1908 0 1796 -1 1872
-19 1910 -22 48 -54 79 -103 100 -31 12 -94 15 -386 15 -346 0 -349 0 -393
-23z m3830 -1016 c50 -26 98 -82 111 -130 6 -25 9 -187 8 -457 l-3 -419 -400
-3 c-441 -3 -479 0 -539 50 -76 62 -76 59 -76 546 l0 432 430 0 c407 0 433 -1
469 -19z"/>
</g>
</svg>
